<svg version="1.0" xmlns="http://www.w3.org/2000/svg" width="637.000000pt" height="392.000000pt" viewBox="0 0 637.000000 392.000000" preserveAspectRatio="xMidYMid meet">

<g transform="translate(0.000000,392.000000) scale(0.100000,-0.100000)" fill="#000000" stroke="none"> <path d="M1855 3338 c-3 -7 -4 -276 -3 -598 l3 -585 33 -3 32 -3 0 565 0 566 1320 0 1320 0 0 -565 0 -565 30 0 30 0 0 600 0 600 -1380 0 c-1095 0 -1382 -3 -1385 -12z"/> <path d="M2581 2838 c0 -7 8 -56 18 -108 18 -102 33 -119 72 -84 18 17 20 17 32 0 7 -10 22 -17 32 -15 16 3 23 24 41 112 l21 107 -23 0 c-20 0 -24 -8 -35 -70 -7 -38 -15 -70 -18 -70 -3 0 -12 10 -20 22 l-13 21 -18 -23 c-20 -26 -21 -24 -35 50 -4 19 -9 43 -11 53 -6 19 -44 24 -43 5z"/> <path d="M2922 2753 c10 -54 20 -104 23 -110 7 -19 42 -16 54 5 10 16 12 16 25 0 7 -10 22 -18 33 -18 17 0 23 14 41 103 27 123 27 117 3 117 -20 0 -25 -9 -36 -70 -14 -74 -15 -76 -35 -50 l-18 23 -13 -21 c-8 -12 -17 -22 -20 -22 -3 0 -11 32 -18 70 -11 62 -15 70 -35 70 l-23 0 19 -97z"/> <path d="M3240 2828 c1 -13 9 -61 19 -108 15 -72 21 -85 39 -88 13 -2 25 5 32 18 l12 22 14 -21 c20 -28 52 -27 59 2 14 60 35 170 35 183 0 8 -9 14 -19 14 -20 0 -25 -12 -36 -92 -4 -27 -9 -48 -12 -48 -3 0 -13 10 -23 22 l-17 22 -12 -22 c-17 -31 -28 -20 -35 35 -10 72 -15 83 -37 83 -13 0 -19 -7 -19 -22z"/> <path d="M3864 2659 c-3 -6 -2 -15 4 -21 13 -13 32 -2 32 18 0 16 -26 19 -36 3z"/> <path d="M458 2092 l-208 -2 0 -40 0 -39 93 -3 92 -3 3 -182 2 -183 45 0 45 0 0 185 0 185 91 0 90 0 -3 42 c-2 33 -7 42 -23 42 -11 1 -113 0 -227 -2z"/> <path d="M770 1935 c0 -188 7 -217 68 -263 32 -24 45 -27 139 -30 131 -5 181 11 221 71 27 40 27 43 27 211 l0 171 -42 3 -43 3 0 -161 c0 -158 -1 -161 -25 -185 -22 -23 -32 -25 -113 -25 -75 0 -94 3 -115 21 -26 20 -27 21 -29 182 l-3 162 -42 3 -43 3 0 -166z"/> <path d="M1314 2087 c-2 -7 -3 -109 -2 -227 l3 -215 45 0 45 0 0 167 c1 100 5 168 10 168 6 0 67 -33 138 -72 l127 -72 0 -98 0 -98 45 0 45 0 -2 228 -3 227 -40 0 -40 0 -5 -77 -5 -77 -139 79 c-108 62 -149 80 -178 80 -22 0 -41 -5 -44 -13z"/> <path d="M1867 2093 c-4 -3 -7 -107 -7 -230 l0 -223 45 0 45 0 0 230 0 230 -38 0 c-21 0 -42 -3 -45 -7z"/> <path d="M2368 1935 c-4 -207 -2 -205 -140 -205 -81 0 -91 2 -113 25 -14 13 -25 29 -25 35 0 5 -20 10 -45 10 -53 0 -57 -13 -22 -75 35 -63 89 -85 207 -85 116 0 165 19 201 76 23 37 24 47 24 209 l0 170 -42 3 -42 3 -3 -166z"/> <path d="M2696 2092 c-7 -12 -176 -440 -176 -447 0 -3 22 -5 48 -5 46 0 49 2 61 35 l12 35 105 0 104 0 14 -35 c14 -33 18 -35 60 -35 26 0 46 3 45 8 0 4 -39 106 -87 227 l-87 220 -47 3 c-25 2 -49 -1 -52 -6z m88 -215 c14 -37 26 -69 26 -72 0 -3 -29 -5 -65 -5 -36 0 -65 1 -65 3 0 2 14 38 50 131 13 36 20 29 54 -57z"/> <path d="M3040 1870 l0 -231 174 3 c193 3 205 7 254 78 20 30 22 45 22 150 0 105 -2 121 -23 150 -44 66 -72 75 -259 79 l-168 3 0 -232z m339 116 c19 -17 21 -30 21 -122 0 -133 -1 -134 -157 -134 l-113 0 0 133 c0 74 3 136 6 140 3 3 55 5 114 4 90 -2 112 -5 129 -21z"/> <path d="M4116 2090 c-91 -29 -123 -144 -60 -219 33 -40 77 -51 205 -51 108 0 129 -7 129 -41 0 -40 -26 -49 -140 -49 -105 0 -109 1 -129 26 -16 21 -27 25 -58 22 -47 -4 -52 -22 -21 -69 39 -57 76 -69 212 -69 103 0 123 3 157 22 89 50 92 176 6 228 -27 17 -51 20 -149 20 -105 0 -120 2 -138 20 -11 11 -20 25 -20 30 0 6 9 19 20 30 17 17 33 20 124 20 100 0 105 -1 124 -25 15 -19 29 -25 61 -25 48 0 53 15 21 67 -35 58 -60 67 -194 70 -67 1 -134 -2 -150 -7z"/> <path d="M4570 1880 c0 -121 -1 -223 -2 -227 -2 -5 18 -9 45 -11 l47 -3 0 90 0 91 135 0 135 0 0 -90 0 -90 45 0 45 0 -2 228 -3 227 -40 0 -40 0 -5 -90 -5 -90 -130 0 -130 0 -3 85 c-3 92 -8 100 -59 100 l-33 0 0 -220z"/> <path d="M5237 2089 c-46 -7 -83 -32 -108 -72 -18 -28 -19 -46 -17 -159 l3 -127 35 -36 c46 -47 86 -58 207 -53 110 3 133 13 177 72 18 23 22 45 24 140 3 98 1 119 -17 153 -32 63 -61 77 -173 83 -53 3 -112 2 -131 -1z m214 -108 c16 -19 19 -40 19 -116 0 -89 -1 -95 -26 -114 -22 -18 -41 -21 -114 -21 -122 0 -132 9 -137 121 -6 136 19 162 155 157 74 -3 86 -6 103 -27z"/> <path d="M5640 1865 l0 -225 45 0 44 0 3 68 3 67 130 5 c72 3 139 10 150 17 83 48 107 164 48 234 -46 54 -66 59 -253 59 l-170 0 0 -225z m318 134 c53 -18 64 -91 18 -121 -6 -4 -64 -8 -128 -8 l-118 0 0 63 c0 35 3 67 7 70 10 11 187 8 221 -4z"/> <path d="M4558 1123 l-3 -468 -657 -3 -658 -2 0 -30 0 -30 690 0 690 0 0 500 0 500 -30 0 -30 0 -2 -467z"/> <path d="M3180 1290 c0 -17 7 -20 45 -20 l45 0 0 -90 c0 -83 1 -90 20 -90 19 0 20 7 20 90 l0 90 45 0 c38 0 45 3 45 20 0 19 -7 20 -110 20 -103 0 -110 -1 -110 -20z"/> <path d="M3510 1200 c0 -103 1 -110 20 -110 18 0 20 7 20 85 0 47 3 85 6 85 11 0 119 -63 126 -74 4 -6 8 -30 8 -53 0 -36 3 -43 20 -43 19 0 20 7 20 110 0 103 -1 110 -20 110 -15 0 -20 -7 -20 -28 0 -16 -3 -31 -6 -35 -3 -3 -32 10 -64 29 -32 19 -70 34 -84 34 l-26 0 0 -110z"/> <path d="M2742 1113 c2 -10 10 -18 18 -18 8 0 16 8 18 18 2 12 -3 17 -18 17 -15 0 -20 -5 -18 -17z"/> </g> </svg>

